<svg width="28" height="26" viewBox="0 0 28 26" fill="none" xmlns="http://www.w3.org/2000/svg">
<path d="M21.8 25C21.8 22.171 20.7043 19.4579 18.7539 17.4575C16.8035 15.4571 14.1583 14.3333 11.4 14.3333M11.4 14.3333C8.64175 14.3333 5.99647 15.4571 4.04609 17.4575C2.09571 19.4579 1 22.171 1 25M11.4 14.3333C14.9899 14.3333 17.9 11.3486 17.9 7.66667C17.9 3.98477 14.9899 1 11.4 1C7.81015 1 4.9 3.98477 4.9 7.66667C4.9 11.3486 7.81015 14.3333 11.4 14.3333ZM27 23.6667C27 19.1733 24.4 15 21.8 13C22.6546 12.3424 23.338 11.4788 23.7897 10.4857C24.2414 9.4926 24.4475 8.40062 24.3896 7.3064C24.3318 6.21218 24.0118 5.14945 23.4581 4.21227C22.9044 3.27508 22.134 2.49235 21.215 1.93333" stroke="#03B5AA" stroke-width="2" stroke-linecap="round" stroke-linejoin="round"/>
</svg>
