<svg width="32" height="18" viewBox="0 0 32 18" fill="none" xmlns="http://www.w3.org/2000/svg">
<path d="M20.5 1.5H22C22.7956 1.5 23.5587 1.81607 24.1213 2.37868C24.6839 2.94129 25 3.70435 25 4.5V13.5C25 14.2956 24.6839 15.0587 24.1213 15.6213C23.5587 16.1839 22.7956 16.5 22 16.5H19M7 1.5H4C3.20435 1.5 2.44129 1.81607 1.87868 2.37868C1.31607 2.94129 1 3.70435 1 4.5V13.5C1 14.2956 1.31607 15.0587 1.87868 15.6213C2.44129 16.1839 3.20435 16.5 4 16.5H5.5M14.5 1.5L10 9H16L11.5 16.5M31 7.5V10.5" stroke="#03B5AA" stroke-width="2" stroke-linecap="round" stroke-linejoin="round"/>
</svg>
