<svg width="34" height="30" viewBox="0 0 34 30" fill="none" xmlns="http://www.w3.org/2000/svg">
<path d="M17 16.5556H17.016M23.4 7.22222V4.11111C23.4 3.28599 23.0629 2.49467 22.4627 1.91122C21.8626 1.32778 21.0487 1 20.2 1H13.8C12.9513 1 12.1374 1.32778 11.5373 1.91122C10.9371 2.49467 10.6 3.28599 10.6 4.11111V7.22222M33 18.1111C28.2525 21.1584 22.6889 22.7829 17 22.7829C11.3111 22.7829 5.74753 21.1584 1 18.1111M4.2 7.22222H29.8C31.5673 7.22222 33 8.61511 33 10.3333V25.8889C33 27.6071 31.5673 29 29.8 29H4.2C2.43269 29 1 27.6071 1 25.8889V10.3333C1 8.61511 2.43269 7.22222 4.2 7.22222Z" stroke="#03B5AA" stroke-width="2" stroke-linecap="round" stroke-linejoin="round"/>
</svg>
