<svg width="27" height="37" viewBox="0 0 27 37" fill="none" xmlns="http://www.w3.org/2000/svg">
<path d="M19.75 11.5H10.375C9.5462 11.5 8.75134 11.8687 8.16529 12.5251C7.57924 13.1815 7.25 14.0717 7.25 15C7.25 15.9283 7.57924 16.8185 8.16529 17.4749C8.75134 18.1313 9.5462 18.5 10.375 18.5H16.625C17.4538 18.5 18.2487 18.8687 18.8347 19.5251C19.4208 20.1815 19.75 21.0717 19.75 22C19.75 22.9283 19.4208 23.8185 18.8347 24.4749C18.2487 25.1313 17.4538 25.5 16.625 25.5H7.25M13.5 28.125V8.875M1 1V36L4.125 34.25L7.25 36L10.375 34.25L13.5 36L16.625 34.25L19.75 36L22.875 34.25L26 36V1L22.875 2.75L19.75 1L16.625 2.75L13.5 1L10.375 2.75L7.25 1L4.125 2.75L1 1Z" stroke="#03B5AA" stroke-width="2" stroke-linecap="round" stroke-linejoin="round"/>
</svg>
